<?xml version="1.0" encoding="UTF-8" standalone="no"?>
<!DOCTYPE svg PUBLIC "-//W3C//DTD SVG 1.1//EN" "http://www.w3.org/Graphics/SVG/1.1/DTD/svg11.dtd">
<svg xmlns="http://www.w3.org/2000/svg" xmlns:xlink="http://www.w3.org/1999/xlink" width="300pt" height="220pt" style="left: 0px; top: 0px"><g id="SvgjsG1009" transform="matrix(1,0,0,1,270,10)" style="display: none;"><line id="SvgjsLine1010" x1="0" y1="5" x2="10" y2="5" stroke="#333333" stroke-width="3"></line><line id="SvgjsLine1011" x1="5" y1="0" x2="5" y2="10" stroke="#333333" stroke-width="3"></line></g><g id="SvgjsG1012"></g><g id="SvgjsG1013" transform="matrix(1,0,0,1,270,160)" style="display: none;"><line id="SvgjsLine1014" x1="0" y1="5" x2="10" y2="5" stroke="#333333" stroke-width="3"></line><line id="SvgjsLine1015" x1="5" y1="0" x2="5" y2="10" stroke="#333333" stroke-width="3"></line></g><g id="SvgjsG1016"></g><g id="SvgjsG1017" transform="matrix(1,0,0,1,730,0)" style="display: none;"><line id="SvgjsLine1018" x1="0" y1="0" x2="10" y2="10" stroke="#333333" stroke-width="3"></line><line id="SvgjsLine1019" x1="0" y1="10" x2="10" y2="0" stroke="#333333" stroke-width="3"></line></g><g id="SvgjsG1020" transform="matrix(1,0,0,1,80,20)"><rect id="SvgjsRect1021" width="150" height="40" fill="#cccccc"></rect><text id="SvgjsText1022" font-family="Helvetica, Arial, sans-serif" fill="#333333" x="10" y="2.203125"><tspan id="SvgjsTspan1023" dy="20.8" x="10">@message</tspan></text><rect id="SvgjsRect1024" width="10" height="10" x="0" y="30" fill="#333333"></rect></g><g id="SvgjsG1025" transform="matrix(1,0,0,1,80,150)"><rect id="SvgjsRect1026" width="150" height="40" fill="#cccccc"></rect><text id="SvgjsText1027" font-family="Helvetica, Arial, sans-serif" fill="#333333" x="10" y="2.203125"><tspan id="SvgjsTspan1028" dy="20.8" x="10">console.log</tspan></text><rect id="SvgjsRect1029" width="10" height="10" x="0" y="0" fill="#333333"></rect></g><line id="SvgjsLine1040" x1="85" y1="55" x2="85" y2="155" stroke="#333333" stroke-width="3"></line></svg>
