<?xml version="1.0" encoding="UTF-8" standalone="no"?>
<!DOCTYPE svg PUBLIC "-//W3C//DTD SVG 1.0//EN" "http://www.w3.org/TR/2001/PR-SVG-20010719/DTD/svg10.dtd">
<svg width="16cm" height="11cm" viewBox="154 129 303 211" xmlns="http://www.w3.org/2000/svg" xmlns:xlink="http://www.w3.org/1999/xlink">
  <g>
    <rect style="fill: #ffffff" x="155" y="130" width="75.2" height="28"/>
    <rect style="fill: none; fill-opacity:0; stroke-width: 2; stroke: #000000" x="155" y="130" width="75.2" height="28"/>
    <text font-size="16" style="fill: #000000;text-anchor:middle;font-family:sans-serif;font-style:normal;font-weight:700" x="192.6" y="150">DflowIn</text>
    <rect style="fill: #ffffff" x="155" y="158" width="75.2" height="8"/>
    <rect style="fill: none; fill-opacity:0; stroke-width: 2; stroke: #000000" x="155" y="158" width="75.2" height="8"/>
    <rect style="fill: #ffffff" x="155" y="166" width="75.2" height="8"/>
    <rect style="fill: none; fill-opacity:0; stroke-width: 2; stroke: #000000" x="155" y="166" width="75.2" height="8"/>
  </g>
  <g>
    <rect style="fill: #ffffff" x="369" y="157" width="86.4" height="28"/>
    <rect style="fill: none; fill-opacity:0; stroke-width: 2; stroke: #000000" x="369" y="157" width="86.4" height="28"/>
    <text font-size="16" style="fill: #000000;text-anchor:middle;font-family:sans-serif;font-style:normal;font-weight:700" x="412.2" y="177">DflowOut</text>
    <rect style="fill: #ffffff" x="369" y="185" width="86.4" height="8"/>
    <rect style="fill: none; fill-opacity:0; stroke-width: 2; stroke: #000000" x="369" y="185" width="86.4" height="8"/>
    <rect style="fill: #ffffff" x="369" y="193" width="86.4" height="8"/>
    <rect style="fill: none; fill-opacity:0; stroke-width: 2; stroke: #000000" x="369" y="193" width="86.4" height="8"/>
  </g>
  <g>
    <rect style="fill: #ffffff" x="229" y="283" width="94.5" height="28"/>
    <rect style="fill: none; fill-opacity:0; stroke-width: 2; stroke: #000000" x="229" y="283" width="94.5" height="28"/>
    <text font-size="16" style="fill: #000000;text-anchor:middle;font-family:sans-serif;font-style:normal;font-weight:700" x="276.25" y="303">DflowTask</text>
    <rect style="fill: #ffffff" x="229" y="311" width="94.5" height="8"/>
    <rect style="fill: none; fill-opacity:0; stroke-width: 2; stroke: #000000" x="229" y="311" width="94.5" height="8"/>
    <rect style="fill: #ffffff" x="229" y="319" width="94.5" height="20"/>
    <rect style="fill: none; fill-opacity:0; stroke-width: 2; stroke: #000000" x="229" y="319" width="94.5" height="20"/>
    <text font-size="12.8" style="fill: #000000;text-anchor:start;font-family:monospace;font-style:normal;font-weight:normal" x="232" y="332.2">+run()</text>
  </g>
</svg>
